<?xml version="1.0" standalone="no"?>
<!DOCTYPE svg PUBLIC "-//W3C//DTD SVG 20010904//EN"
 "http://www.w3.org/TR/2001/REC-SVG-20010904/DTD/svg10.dtd">
<svg version="1.0" xmlns="http://www.w3.org/2000/svg"
 width="260.000000pt" height="260.000000pt" viewBox="0 0 260.000000 260.000000"
 preserveAspectRatio="xMidYMid meet">
<metadata>
Created by potrace 1.11, written by Peter Selinger 2001-2013
</metadata>
<g transform="translate(0.000000,260.000000) scale(0.100000,-0.100000)"
fill="#000000" stroke="none">
<path d="M1361 2559 c-7 -12 -21 -36 -31 -53 -10 -17 -65 -113 -122 -213 -58
-100 -108 -188 -112 -195 -3 -7 -14 -26 -24 -43 -11 -16 -90 -154 -177 -305
-182 -316 -329 -572 -470 -815 -54 -93 -109 -190 -123 -215 -14 -25 -29 -51
-34 -57 -11 -14 3 -21 87 -46 28 -8 102 -31 165 -50 124 -38 169 -51 185 -51
5 -1 27 -35 48 -76 176 -341 220 -426 226 -432 3 -4 41 14 84 40 43 26 93 56
112 67 43 25 319 195 400 245 33 21 216 133 408 250 191 116 347 214 347 216
0 2 -12 2 -27 0 -33 -6 -116 -14 -228 -21 -44 -3 -96 -7 -115 -10 -19 -2 -69
-7 -110 -10 -83 -6 -167 -14 -218 -21 -19 -2 -75 -7 -125 -10 -51 -3 -105 -7
-122 -9 -41 -5 -147 -14 -222 -20 -71 -5 -69 -8 -53 76 6 30 12 70 15 89 4 41
12 91 26 175 6 33 13 74 15 90 4 33 4 31 33 215 11 69 23 148 27 175 3 28 7
57 9 65 2 8 8 51 15 95 7 44 14 89 16 100 2 11 6 40 10 65 3 25 9 70 14 100 5
30 12 73 15 95 3 22 8 51 11 65 10 56 12 67 19 125 3 32 8 62 10 65 2 3 6 30
10 60 3 30 10 72 15 92 5 24 4 41 -4 49 -7 8 -8 10 0 6 7 -4 11 5 12 23 1 36
0 36 -17 9z"/>
</g>
</svg>
